<svg width="81" height="18" viewBox="0 0 81 18" fill="none" xmlns="http://www.w3.org/2000/svg">
<path d="M12.3788 6.69054C12.3788 7.62006 12.1648 8.47339 11.7367 9.25054C11.3087 10.0124 10.6514 10.6296 9.76478 11.102C8.87816 11.5743 7.77753 11.8105 6.46289 11.8105H4.03233V17.5705H0.111328V1.52482H6.46289C7.74696 1.52482 8.8323 1.74577 9.71892 2.18768C10.6055 2.62958 11.2705 3.23911 11.7138 4.01625C12.1571 4.79339 12.3788 5.68482 12.3788 6.69054ZM6.1648 8.70196C6.91384 8.70196 7.4718 8.52673 7.83868 8.17625C8.20555 7.82577 8.38899 7.33054 8.38899 6.69054C8.38899 6.05054 8.20555 5.5553 7.83868 5.20482C7.4718 4.85435 6.91384 4.67911 6.1648 4.67911H4.03233V8.70196H6.1648Z" fill="#262626"/>
<path d="M18.3411 0.65625V17.5705H14.4201V0.65625H18.3411Z" fill="#262626"/>
<path d="M20.403 11.1705C20.403 9.86006 20.6475 8.70958 21.1367 7.71911C21.6412 6.72863 22.3214 5.96673 23.1775 5.43339C24.0335 4.90006 24.9889 4.63339 26.0437 4.63339C26.9456 4.63339 27.7329 4.81625 28.4055 5.18196C29.0934 5.54768 29.6207 6.02768 29.9876 6.62196V4.81625H33.9086V17.5705H29.9876V15.7648C29.6055 16.3591 29.0704 16.8391 28.3825 17.2048C27.7099 17.5705 26.9227 17.7534 26.0208 17.7534C24.9813 17.7534 24.0335 17.4867 23.1775 16.9534C22.3214 16.4048 21.6412 15.6353 21.1367 14.6448C20.6475 13.6391 20.403 12.481 20.403 11.1705ZM29.9876 11.1934C29.9876 10.2182 29.7125 9.44863 29.1622 8.88482C28.6271 8.32101 27.9698 8.03911 27.1902 8.03911C26.4106 8.03911 25.7456 8.32101 25.1953 8.88482C24.6603 9.43339 24.3927 10.1953 24.3927 11.1705C24.3927 12.1458 24.6603 12.9229 25.1953 13.502C25.7456 14.0658 26.4106 14.3477 27.1902 14.3477C27.9698 14.3477 28.6271 14.0658 29.1622 13.502C29.7125 12.9382 29.9876 12.1686 29.9876 11.1934Z" fill="#262626"/>
<path d="M44.5414 4.67911C46.0395 4.67911 47.2319 5.16673 48.1185 6.14196C49.0204 7.10196 49.4713 8.42768 49.4713 10.1191V17.5705H45.5733V10.6448C45.5733 9.79149 45.3516 9.12863 44.9083 8.65625C44.465 8.18387 43.8688 7.94768 43.1198 7.94768C42.3707 7.94768 41.7746 8.18387 41.3313 8.65625C40.8879 9.12863 40.6663 9.79149 40.6663 10.6448V17.5705H36.7453V4.81625H40.6663V6.50768C41.0637 5.94387 41.5988 5.50196 42.2714 5.18196C42.944 4.84673 43.7007 4.67911 44.5414 4.67911Z" fill="#262626"/>
<path d="M59.3272 14.2563V17.5705H57.3323C55.9107 17.5705 54.8024 17.2277 54.0075 16.542C53.2126 15.841 52.8152 14.7058 52.8152 13.1363V8.06196H51.2559V4.81625H52.8152V1.70768H56.7361V4.81625H59.3043V8.06196H56.7361V13.182C56.7361 13.5629 56.8279 13.8372 57.0113 14.0048C57.1947 14.1724 57.5005 14.2563 57.9285 14.2563H59.3272Z" fill="#262626"/>
<path d="M65.4323 1.52482V17.5705H61.5113V1.52482H65.4323Z" fill="#262626"/>
<path d="M76.0699 4.67911C77.568 4.67911 78.7604 5.16673 79.647 6.14196C80.5489 7.10196 80.9998 8.42768 80.9998 10.1191V17.5705H77.1018V10.6448C77.1018 9.79149 76.8801 9.12863 76.4368 8.65625C75.9935 8.18387 75.3973 7.94768 74.6483 7.94768C73.8992 7.94768 73.3031 8.18387 72.8598 8.65625C72.4164 9.12863 72.1948 9.79149 72.1948 10.6448V17.5705H68.2738V4.81625H72.1948V6.50768C72.5922 5.94387 73.1273 5.50196 73.7999 5.18196C74.4725 4.84673 75.2292 4.67911 76.0699 4.67911Z" fill="#262626"/>
</svg>
