<svg width="379" height="259" viewBox="0 0 379 259" fill="none" xmlns="http://www.w3.org/2000/svg">
<g clip-path="url(#clip0)">
<path opacity="0.1" d="M68.6344 142.132C78.951 155.25 74.9431 174.413 68.3875 189.76C66.1926 194.898 63.7101 200.335 64.6362 205.845C65.7686 212.583 71.782 217.511 78.0956 220.122C89.6049 224.882 103.378 223.748 113.953 217.168C123.092 211.482 129.637 202.236 138.932 196.809C154.488 187.726 174.287 191.156 191.178 197.412C203.128 201.838 216.193 207.595 228.067 202.969C236.423 199.714 242.198 191.792 245.345 183.395C246.864 179.341 247.967 174.952 250.868 171.739C252.593 169.828 254.844 168.472 257.15 167.329C278.207 156.887 304.801 162.479 325.253 150.898C339.066 143.077 347.908 128.324 351.824 112.94C355.739 97.5559 355.283 81.4249 354.289 65.5818C353.582 54.3227 352.315 42.3025 345.121 33.6129C337.512 24.4204 324.452 21.0022 312.648 22.7494C300.844 24.4966 290.144 30.7239 280.731 38.0586C268.967 47.2254 258.057 58.6402 243.613 62.3535C233.776 64.8823 223.429 63.499 213.284 63.02C196.324 62.2192 179.357 64 162.491 65.9501C146.344 67.8168 130.081 69.8714 114.698 75.1245C103.813 78.842 95.0859 85.59 84.8071 90.3043C78.107 93.3773 70.8008 94.2258 64.4571 98.1398C56.6427 102.961 49.4786 111.347 51.4808 121.161C53.3844 130.49 63.1589 135.17 68.6344 142.132Z" fill="#04BF94"/>
<path opacity="0.1" d="M371.309 174.383C371.309 174.383 311.985 158.821 235.154 198.375C158.324 237.928 74.3615 167.251 75.9824 156.552C77.6033 145.853 20.2236 156.552 20.2236 156.552V252.194H371.309V174.383Z" fill="#04BF94"/>
<path d="M330.014 32.2494C321.11 32.2494 313.891 25.0301 313.891 16.1247C313.891 7.21927 321.11 0 330.014 0C338.919 0 346.138 7.21927 346.138 16.1247C346.138 25.0301 338.919 32.2494 330.014 32.2494Z" fill="#FFDF9C"/>
<path d="M216.922 82.3906L219.548 98.7272C219.548 98.7272 222.831 109.509 222.503 114.737C222.175 119.965 222.503 127.153 222.503 127.153C222.503 127.153 230.381 141.529 223.816 147.41C217.251 153.291 215.281 128.786 215.281 128.786C215.281 128.786 216.266 118.331 213.968 112.777C211.67 107.222 211.342 95.1331 211.342 95.1331L216.922 82.3906Z" fill="#FFCDD3"/>
<path opacity="0.05" d="M216.922 82.3906L219.548 98.7272C219.548 98.7272 222.831 109.509 222.503 114.737C222.175 119.965 222.503 127.153 222.503 127.153C222.503 127.153 230.381 141.529 223.816 147.41C217.251 153.291 215.281 128.786 215.281 128.786C215.281 128.786 216.266 118.331 213.968 112.777C211.67 107.222 211.342 95.1331 211.342 95.1331L216.922 82.3906Z" fill="black"/>
<path d="M178.463 138.57L173.922 155.58L169.654 175.511C169.654 175.511 167.357 179.758 169.654 188.58L162.104 213.085C162.104 213.085 157.837 228.768 155.211 229.095C152.585 229.422 157.837 241.511 157.837 241.511L165.059 237.263C165.059 237.263 167.028 227.461 169.655 225.174C172.281 222.887 180.815 200.016 180.815 200.016L183.441 184.006C183.441 184.006 191.648 162.115 198.87 156.887C206.091 151.66 208.389 143.165 208.389 143.165L178.463 138.57Z" fill="#FFCDD3"/>
<path opacity="0.05" d="M208.389 143.163C208.389 143.163 206.091 151.658 198.87 156.886C191.648 162.114 183.441 184.005 183.441 184.005L180.815 200.015C180.815 200.015 172.281 222.886 169.654 225.173C167.728 226.852 166.152 232.58 165.453 235.507C165.197 236.569 165.059 237.262 165.059 237.262L157.837 241.509C157.837 241.509 152.585 229.42 155.211 229.094C155.618 229.045 156.064 228.623 156.531 227.95C159.058 224.284 162.104 213.084 162.104 213.084L169.654 188.579C167.357 179.757 169.654 175.51 169.654 175.51L173.922 155.579L178.462 138.57L208.389 143.163Z" fill="black"/>
<path d="M250.406 228.113L247.78 234.321L235.962 233.014C236.326 231.328 236.529 229.61 236.566 227.885C236.671 224.176 236.1 219.171 233.008 215.371C227.428 208.51 218.893 191.52 218.893 191.52C218.893 191.52 210.358 182.371 208.388 178.777L191.956 151.342L192.468 148.881L188.036 144.797H215.61L222.175 170.282L227.428 180.737C227.428 180.737 238.588 190.213 242.856 210.143C242.856 210.143 247.113 223.422 249.825 227.385C249.994 227.646 250.189 227.89 250.406 228.113Z" fill="#FFCDD3"/>
<path opacity="0.1" d="M165.452 235.51C165.195 236.572 165.058 237.265 165.058 237.265L157.836 241.512C157.836 241.512 152.584 229.423 155.21 229.097C155.617 229.048 156.063 228.626 156.529 227.953C156.87 228.156 157.136 228.464 157.288 228.831C157.439 229.198 157.468 229.604 157.37 229.989C157.267 230.477 157.092 230.947 156.851 231.384C155.866 233.017 160.134 235.631 160.134 235.631C161.572 237.471 163.905 236.5 165.452 235.51Z" fill="black"/>
<path d="M157.043 230.639C157.493 228.754 155.125 227.491 153.796 228.905C153.457 229.259 153.161 229.651 152.913 230.074C151.6 232.361 141.752 234.321 139.782 233.668C137.813 233.014 130.919 232.361 132.561 237.262C134.202 242.163 163.745 249.351 163.745 249.351C163.745 249.351 167.028 244.777 166.7 241.509C166.509 239.335 166.509 237.149 166.7 234.975C166.7 234.975 162.104 239.222 159.806 236.282C159.806 236.282 155.539 233.668 156.524 232.034C156.765 231.597 156.94 231.127 157.043 230.639Z" fill="#DCE6F2"/>
<path opacity="0.1" d="M250.407 228.115L247.78 234.323L235.963 233.016C236.327 231.329 236.529 229.612 236.567 227.887C236.684 227.653 236.856 227.45 237.069 227.297C237.281 227.145 237.528 227.045 237.787 227.008C238.046 226.971 238.31 226.998 238.557 227.085C238.803 227.173 239.025 227.319 239.203 227.511C239.814 228.164 240.431 228.854 240.887 229.422C242.2 231.056 246.467 230.076 246.467 230.076C247.574 230.442 248.887 228.854 249.825 227.387C249.995 227.648 250.189 227.892 250.407 228.115Z" fill="black"/>
<path d="M239.531 228.164C239.335 227.952 239.086 227.796 238.809 227.713C238.532 227.63 238.238 227.622 237.957 227.692C237.677 227.761 237.42 227.904 237.213 228.107C237.007 228.309 236.859 228.563 236.784 228.842C236.187 231.166 234.876 234.167 232.023 235.303C227.099 237.264 220.206 240.531 222.503 243.472C224.801 246.412 232.679 249.026 239.573 246.739C246.466 244.452 256.314 238.897 256.314 238.897L251.39 225.828C251.39 225.828 248.764 231.383 246.795 230.729C246.795 230.729 242.527 231.709 241.214 230.076C240.757 229.507 240.141 228.819 239.531 228.164Z" fill="#DCE6F2"/>
<path d="M194.93 44.4925C194.93 44.4925 202.808 55.2746 200.839 62.7894C198.869 70.3042 216.595 57.8885 216.595 57.8885C216.595 57.8885 207.404 49.7202 209.045 36.3242L194.93 44.4925Z" fill="#FFCDD3"/>
<path d="M220.863 146.759C207.732 154.6 191.976 151.333 191.976 151.333L192.304 149.046C192.074 149.069 191.845 149.092 191.621 149.111C179.072 150.215 176.219 146.432 176.219 146.432C178.182 140.94 179.722 129.295 180.681 120.293C180.818 119 180.943 117.761 181.058 116.601C181.317 113.978 181.511 111.769 181.636 110.276C181.744 108.962 181.8 108.204 181.8 108.204L183.113 98.4025C183.113 98.4025 186.724 86.6402 185.082 78.7987C183.685 72.12 188.24 69.7075 189.621 69.1388C189.838 69.0555 190.062 68.9895 190.289 68.9415C192.089 68.5167 194.094 66.6846 195.8 64.7198C198.287 61.885 201.456 59.7324 205.008 58.4662C206.659 57.8683 208.061 57.2344 208.061 57.2344C210.359 54.6206 216.595 56.2542 216.595 56.2542C224.145 61.1552 220.206 77.165 220.206 77.165L217.068 86.0913C215.319 91.0608 212.827 95.7135 209.951 100.134C205.126 107.544 211.672 117.68 211.672 117.68C221.848 125.848 220.863 146.759 220.863 146.759Z" fill="#FF8AA1"/>
<path opacity="0.05" d="M192.796 131.565L191.621 149.11C179.072 150.215 176.219 146.431 176.219 146.431C178.182 140.939 179.722 129.294 180.68 120.293C180.818 118.999 180.943 117.76 181.058 116.601L192.796 131.565Z" fill="black"/>
<path opacity="0.1" d="M213.642 85.658C213.642 85.658 207.733 96.7668 205.764 101.668C203.794 106.569 203.794 104.935 202.809 106.569C201.825 108.202 191.32 115.39 191.32 115.39L180.681 120.291C181.131 116.07 181.456 112.427 181.637 110.274L191.649 103.628C191.649 103.628 198.542 99.3806 198.87 93.8262C199.199 88.2718 203.466 78.1432 203.466 78.1432C203.466 78.1432 212.001 68.9947 215.612 73.2422C219.222 77.4897 213.642 85.658 213.642 85.658Z" fill="black"/>
<path d="M203.466 76.5113C203.466 76.5113 199.198 86.64 198.87 92.1944C198.542 97.7488 191.648 101.996 191.648 101.996L169.983 116.372C169.983 116.372 151.272 122.58 157.509 129.768C163.746 136.956 173.594 121.927 173.594 121.927L191.32 113.759C191.32 113.759 201.824 106.571 202.809 104.937C203.794 103.303 203.794 104.937 205.763 100.036C207.733 95.135 213.642 84.0261 213.642 84.0261C213.642 84.0261 219.222 75.8578 215.611 71.6103C212 67.3628 203.466 76.5113 203.466 76.5113Z" fill="#FFCDD3"/>
<path opacity="0.1" d="M200.839 80.7578C200.839 80.7578 207.404 75.8568 208.717 74.2232C209.297 73.502 210.196 73.6086 211.02 73.9526C212.558 74.6084 214.231 74.8833 215.898 74.7541C217.334 74.6316 218.729 74.7133 218.565 75.5301C218.236 77.1637 219.55 67.0351 219.55 67.0351L213.969 65.0747L206.747 68.9955L200.839 80.7578Z" fill="black"/>
<path d="M200.839 80.1049C200.839 80.1049 207.404 75.204 208.717 73.5703C209.297 72.8491 210.196 72.9557 211.02 73.2998C212.558 73.9556 214.231 74.2305 215.898 74.1013C217.334 73.9788 218.729 74.0604 218.565 74.8773C218.236 76.5109 219.55 66.3823 219.55 66.3823L213.969 64.4219L206.747 68.3426L200.839 80.1049Z" fill="#FF8AA1"/>
<path opacity="0.1" d="M185.38 80.7557C186.565 81.2731 187.857 81.4985 189.148 81.4133C190.438 81.328 191.69 80.9344 192.797 80.2656" fill="black"/>
<path opacity="0.1" d="M206.912 37.1391C206.666 35.186 209.096 39.2424 209.373 36.9758L195.258 45.144C195.258 45.144 196.064 46.2484 197.095 47.9922C197.629 48.0529 198.167 48.0837 198.705 48.0846C202.952 48.0846 204.296 40.068 206.912 37.1391Z" fill="black"/>
<path d="M198.377 47.4295C190.491 47.4295 184.097 41.0662 184.097 33.2167C184.097 25.3672 190.491 19.0039 198.377 19.0039C206.263 19.0039 212.656 25.3672 212.656 33.2167C212.656 41.0662 206.263 47.4295 198.377 47.4295Z" fill="#FFCDD3"/>
<path opacity="0.1" d="M191.971 33.4674C192.078 34.3596 192.058 35.3029 192.484 36.0949C193.081 37.2039 194.369 37.7084 195.445 38.3684C199.807 41.0429 201.101 47.0604 199.711 51.9686C199.219 53.7054 198.444 55.4679 198.766 57.2437C199.32 60.2953 202.812 61.8773 205.916 62.1484C209.019 62.4194 212.268 61.9187 215.171 63.0457C220.045 64.9384 222.192 70.6292 226.336 73.8095C231.156 77.5085 237.794 77.2794 243.865 77.7074C246.11 77.8657 248.388 78.1347 250.593 77.6878C252.798 77.2408 254.973 75.9177 255.752 73.8164C256.851 70.8516 254.85 67.6368 252.525 65.4846C250.2 63.3323 247.362 61.5166 246.046 58.6407C244.277 54.775 245.707 49.8924 243.481 46.2678C243.077 45.5324 242.44 44.9515 241.671 44.6156C240.691 44.2491 239.603 44.5023 238.557 44.5381C234.503 44.6768 231.045 41.4582 229.162 37.8821C227.279 34.3061 226.479 30.2584 224.757 26.6028C222.809 22.4657 219.562 18.8148 215.341 17.0191C212.868 15.9672 210.168 15.5808 207.586 14.8323C204.651 13.9815 201.85 12.6572 198.843 12.1058C195.837 11.5543 192.432 11.9183 190.234 14.0329C188.165 16.0231 187.562 19.146 185.584 21.226C184.837 22.0122 183.877 22.6772 183.517 23.6986C182.665 26.1184 186.8 26.3225 188.179 27.2913C189.203 28.0028 190.069 28.9189 190.722 29.9819C191.375 31.0449 191.8 32.2317 191.971 33.4674Z" fill="black"/>
<path d="M192.627 33.1424C192.734 34.0346 192.714 34.9779 193.141 35.7699C193.738 36.8789 195.025 37.3835 196.102 38.0434C200.464 40.718 201.757 46.7355 200.368 51.6436C199.876 53.3804 199.1 55.143 199.422 56.9187C199.976 59.9704 203.468 61.5524 206.572 61.8234C209.676 62.0944 212.925 61.5937 215.827 62.7207C220.702 64.6135 222.849 70.3043 226.992 73.4845C231.812 77.1835 238.451 76.9544 244.522 77.3825C246.766 77.5407 249.044 77.8097 251.249 77.3628C253.454 76.9159 255.63 75.5927 256.409 73.4914C257.508 70.5266 255.506 67.3118 253.181 65.1596C250.856 63.0074 248.019 61.1916 246.703 58.3158C244.933 54.45 246.364 49.5674 244.138 45.9429C243.733 45.2074 243.097 44.6265 242.327 44.2906C241.347 43.9241 240.26 44.1773 239.213 44.2132C235.159 44.3519 231.702 41.1332 229.819 37.5572C227.936 33.9812 227.136 29.9334 225.414 26.2778C223.465 22.1408 220.218 18.4898 215.997 16.6942C213.524 15.6422 210.825 15.2559 208.243 14.5074C205.308 13.6566 202.506 12.3322 199.5 11.7808C196.494 11.2294 193.088 11.5934 190.89 13.7079C188.821 15.6981 188.218 18.821 186.241 20.9011C185.493 21.6873 184.533 22.3522 184.174 23.3736C183.322 25.7935 187.456 25.9976 188.835 26.9664C189.86 27.6778 190.726 28.594 191.378 29.657C192.031 30.72 192.456 31.9068 192.627 33.1424Z" fill="#2C2C34"/>
<path d="M359.477 252.359C359.477 252.359 370.175 233.23 356.883 217.992C343.592 202.755 328.032 211.184 328.032 211.184C328.032 211.184 308.581 220.262 313.119 241.984C313.119 241.984 315.713 253.007 323.493 252.359H359.477Z" fill="#04BF94"/>
<path opacity="0.2" d="M359.477 252.359C359.477 252.359 370.175 233.23 356.883 217.992C343.592 202.755 328.032 211.184 328.032 211.184C328.032 211.184 308.581 220.262 313.119 241.984C313.119 241.984 315.713 253.007 323.493 252.359H359.477Z" fill="white"/>
<path d="M342.673 252.386L330.949 216.695" stroke="#535461" stroke-width="0.324209" stroke-miterlimit="10"/>
<path d="M320.251 222.207C320.251 222.207 326.287 219.366 332.346 220.949C332.346 220.949 335.487 213.129 342.619 211.832" stroke="#535461" stroke-width="0.324209" stroke-miterlimit="10"/>
<path d="M317.333 234.526C317.333 234.526 327.598 227.107 335.109 229.358C335.109 229.358 343.592 219.289 349.427 219.937" stroke="#535461" stroke-width="0.324209" stroke-miterlimit="10"/>
<path d="M319.602 247.82C319.602 247.82 328.376 241.474 339.225 241.891C339.225 241.891 347.482 231.934 355.262 231.285" stroke="#535461" stroke-width="0.324209" stroke-miterlimit="10"/>
<path d="M337.991 252.387C339.336 251.752 340.739 251.249 342.181 250.885C342.181 250.885 348.942 242.093 362.476 244.956" stroke="#535461" stroke-width="0.324209" stroke-miterlimit="10"/>
<path d="M243.745 252.357C243.745 252.357 233.047 234.849 259.63 208.913C286.212 182.976 284.591 178.113 282.322 174.222C282.322 174.222 303.718 176.816 299.179 208.913C294.641 241.009 275.19 252.357 275.19 252.357H243.745Z" fill="#04BF94"/>
<path d="M258.819 252.357C258.819 252.357 266.762 229.338 278.756 215.397C290.751 201.456 288.482 178.437 282.322 174.222" stroke="#535461" stroke-width="0.648418" stroke-miterlimit="10"/>
<path d="M68.6168 44.9905C73.3941 49.8389 73.7081 57.2764 73.7081 57.2764C73.7081 57.2764 66.2768 56.853 61.4995 52.0046C56.7223 47.1562 56.4082 39.7188 56.4082 39.7188C56.4082 39.7188 63.8396 40.1421 68.6168 44.9905Z" fill="#04BF94"/>
<path d="M352.92 118.912C357.698 123.761 358.012 131.198 358.012 131.198C358.012 131.198 350.58 130.775 345.803 125.927C341.026 121.078 340.712 113.641 340.712 113.641C340.712 113.641 348.143 114.064 352.92 118.912Z" fill="#0CA481"/>
<path d="M86.7694 134.799C91.5467 139.648 91.8607 147.085 91.8607 147.085C91.8607 147.085 84.4294 146.662 79.6521 141.813C74.8749 136.965 74.5608 129.527 74.5608 129.527C74.5608 129.527 81.9922 129.951 86.7694 134.799Z" fill="#04BF94"/>
<path d="M320.881 129.468C327.176 126.88 334.179 129.403 334.179 129.403C334.179 129.403 330.976 136.122 324.681 138.71C318.386 141.298 311.383 138.775 311.383 138.775C311.383 138.775 314.586 132.056 320.881 129.468Z" fill="#04BF94"/>
<path d="M241.728 119.744C245.366 113.992 252.538 112 252.538 112C252.538 112 253.811 119.335 250.172 125.087C246.533 130.839 239.362 132.831 239.362 132.831C239.362 132.831 238.089 125.497 241.728 119.744Z" fill="#FFD037"/>
<path d="M153.906 146.336C152.354 146.336 151.095 145.077 151.095 143.525C151.095 141.973 152.354 140.714 153.906 140.714C155.458 140.714 156.716 141.973 156.716 143.525C156.716 145.077 155.458 146.336 153.906 146.336Z" fill="#FC6681"/>
<path d="M147.348 176.316C145.796 176.316 144.537 175.058 144.537 173.506C144.537 171.954 145.796 170.695 147.348 170.695C148.9 170.695 150.158 171.954 150.158 173.506C150.158 175.058 148.9 176.316 147.348 176.316Z" fill="#FC6681"/>
<path d="M206.627 182.652C206.627 182.652 217.325 170.656 221.215 185.569C225.105 200.483 227.375 202.428 235.155 198.538C242.935 194.647 251.04 213.127 231.913 226.42C212.786 239.712 223.484 252.843 223.484 252.843H155.083C155.083 252.843 146.006 226.42 165.781 217.342C185.555 208.264 184.907 201.456 184.259 192.378C183.61 183.3 206.627 182.652 206.627 182.652Z" fill="#04BF94"/>
<path d="M215.703 178.09C215.703 178.09 171.29 236.632 186.527 252.843" stroke="#535461" stroke-width="0.648418" stroke-miterlimit="10"/>
<path d="M227.186 199.483C227.186 199.483 216.676 208.428 199.494 203.889C182.313 199.35 186.549 187.706 186.549 187.706" stroke="#535461" stroke-width="0.648418" stroke-miterlimit="10"/>
<path d="M155.261 227.779C155.261 227.779 178.125 216.688 189.62 220.824C219.549 231.593 241.8 202.59 241.8 202.59" stroke="#535461" stroke-width="0.648418" stroke-miterlimit="10"/>
<path d="M221.702 252.36C221.702 252.36 207.762 241.986 225.268 205.674C225.268 205.674 248.609 176.819 225.268 149.586C225.268 149.586 276.164 150.883 275.191 198.217C274.219 245.552 249.743 252.36 249.743 252.36H221.702Z" fill="#04BF94"/>
<path d="M234.721 252.36C234.721 252.36 238.233 227.396 247.635 212.158C249.49 209.079 250.824 205.716 251.585 202.202C254.727 188.382 250.247 173.929 240.097 164.037L225.266 149.586" stroke="#535461" stroke-width="0.648418" stroke-miterlimit="10"/>
<path opacity="0.1" d="M221.702 252.36C221.702 252.36 207.762 241.986 225.268 205.674C225.268 205.674 248.609 176.819 225.268 149.586C225.268 149.586 276.164 150.883 275.191 198.217C274.219 245.552 249.743 252.36 249.743 252.36H221.702Z" fill="black"/>
<path d="M96.7497 252.072C96.7497 252.072 144.451 241.407 83.7576 178.999C83.7576 178.999 57.5949 203.797 67.1929 234.624C71.0518 247.018 83.4657 254.67 96.0388 252.218C96.2742 252.173 96.5112 252.124 96.7497 252.072Z" fill="#04BF94"/>
<path opacity="0.4" d="M96.75 252.072C97.7975 251.838 143.424 240.351 83.7579 178.999C83.7579 178.999 57.5952 203.797 67.1931 234.624C71.0521 247.018 83.466 254.67 96.0391 252.218C96.2745 252.173 96.5114 252.124 96.75 252.072Z" fill="white"/>
<path d="M96.1228 252.427C96.1228 252.427 70.9278 214.467 83.7569 178.999" stroke="#535461" stroke-width="0.324209" stroke-miterlimit="10"/>
<path d="M294.174 252.072C294.174 252.072 341.875 241.407 281.182 178.999C281.182 178.999 255.019 203.797 264.617 234.624C268.476 247.018 280.89 254.67 293.463 252.218C293.698 252.173 293.935 252.124 294.174 252.072Z" fill="#04BF94"/>
<path opacity="0.4" d="M294.174 252.072C295.221 251.838 340.848 240.351 281.182 178.999C281.182 178.999 255.019 203.797 264.617 234.624C268.476 247.018 280.89 254.67 293.463 252.218C293.698 252.173 293.935 252.124 294.174 252.072Z" fill="white"/>
<path d="M293.548 252.427C293.548 252.427 268.353 214.467 281.183 178.999" stroke="#535461" stroke-width="0.324209" stroke-miterlimit="10"/>
<path d="M187.519 252.072C187.519 252.072 235.22 241.407 174.527 178.999C174.527 178.999 148.364 203.797 157.962 234.624C161.821 247.018 174.235 254.67 186.808 252.218C187.044 252.173 187.281 252.124 187.519 252.072Z" fill="#04BF94"/>
<path opacity="0.4" d="M187.519 252.072C188.567 251.838 234.193 240.351 174.527 178.999C174.527 178.999 148.365 203.797 157.963 234.624C161.821 247.018 174.235 254.67 186.808 252.218C187.044 252.173 187.281 252.124 187.519 252.072Z" fill="white"/>
<path d="M186.894 252.427C186.894 252.427 161.699 214.467 174.528 178.999" stroke="#535461" stroke-width="0.324209" stroke-miterlimit="10"/>
<path d="M40.9908 252.072C40.9908 252.072 88.6915 241.407 27.9986 178.999C27.9986 178.999 1.8359 203.797 11.4338 234.624C15.2928 247.018 27.7067 254.67 40.2798 252.218C40.5152 252.173 40.7522 252.124 40.9908 252.072Z" fill="#04BF94"/>
<path opacity="0.4" d="M40.9911 252.072C42.0385 251.838 87.6646 240.351 27.9989 178.999C27.9989 178.999 1.83616 203.797 11.4341 234.624C15.2931 247.018 27.707 254.67 40.2801 252.218C40.5155 252.173 40.7525 252.124 40.9911 252.072Z" fill="white"/>
<path d="M40.3655 252.427C40.3655 252.427 15.1705 214.467 27.9997 178.999" stroke="#535461" stroke-width="0.324209" stroke-miterlimit="10"/>
<path d="M129.815 252.072C129.815 252.072 177.516 241.407 116.823 178.999C116.823 178.999 90.6606 203.797 100.259 234.624C104.118 247.018 116.531 254.67 129.105 252.218C129.34 252.173 129.577 252.124 129.815 252.072Z" fill="#04BF94"/>
<path opacity="0.4" d="M129.816 252.072C130.863 251.838 176.489 240.351 116.824 178.999C116.824 178.999 90.661 203.797 100.259 234.624C104.118 247.018 116.532 254.67 129.105 252.218C129.34 252.173 129.577 252.124 129.816 252.072Z" fill="white"/>
<path d="M129.19 252.427C129.19 252.427 103.995 214.467 116.824 178.999" stroke="#535461" stroke-width="0.324209" stroke-miterlimit="10"/>
<path d="M295.773 248.344C294.365 247.277 293.044 246.017 292.638 244.484C292.429 243.673 292.54 242.812 292.947 242.081C293.355 241.349 294.028 240.802 294.828 240.553C296.84 239.925 298.99 241.063 300.62 242.212C302.249 243.361 304.117 244.672 306.25 244.429C304.04 242.833 302.99 240.239 303.599 237.882C303.703 237.374 303.961 236.91 304.337 236.553C305.453 235.579 307.478 235.997 308.815 236.765C313.067 239.205 314.253 243.918 314.277 248.16C314.705 246.63 314.344 245.035 314.355 243.466C314.365 241.896 314.893 240.156 316.515 239.313C317.479 238.813 318.669 238.716 319.81 238.681C321.722 238.624 323.851 238.78 325.156 239.921C326.778 241.339 326.357 243.717 324.946 245.277C323.535 246.837 321.389 247.815 319.413 248.893C317.908 249.714 316.385 250.674 315.459 251.97C315.341 252.142 315.243 252.326 315.166 252.52H303.183C300.55 251.439 298.061 250.037 295.773 248.344Z" fill="#04BF94"/>
<path d="M95.1052 248.344C93.6971 247.277 92.3763 246.017 91.9706 244.484C91.7614 243.673 91.8722 242.812 92.2799 242.081C92.6876 241.349 93.3611 240.802 94.1609 240.553C96.1726 239.925 98.3223 241.063 99.9521 242.212C101.582 243.361 103.45 244.672 105.583 244.429C103.373 242.833 102.323 240.239 102.932 237.882C103.036 237.374 103.293 236.91 103.669 236.553C104.786 235.579 106.81 235.997 108.147 236.765C112.4 239.205 113.586 243.918 113.609 248.16C114.038 246.63 113.677 245.035 113.687 243.466C113.698 241.896 114.225 240.156 115.848 239.313C116.811 238.813 118.002 238.716 119.143 238.681C121.054 238.624 123.183 238.78 124.489 239.921C126.111 241.339 125.69 243.717 124.279 245.277C122.868 246.837 120.722 247.815 118.746 248.893C117.24 249.714 115.718 250.674 114.792 251.97C114.674 252.142 114.576 252.326 114.499 252.52H102.516C99.8826 251.439 97.3934 250.037 95.1052 248.344Z" fill="#04BF94"/>
<path d="M159.577 225.015C149.096 244.453 126.854 252.797 126.854 252.797C126.854 252.797 121.603 229.626 132.083 210.188C142.563 190.75 164.806 182.406 164.806 182.406C164.806 182.406 170.057 205.577 159.577 225.015Z" fill="#009C78"/>
<path d="M152.372 218.617C133.45 230.002 126.163 252.615 126.163 252.615C126.163 252.615 149.553 256.77 168.474 245.385C187.396 234 194.683 211.387 194.683 211.387C194.683 211.387 171.293 207.233 152.372 218.617Z" fill="#04BF94"/>
<path d="M220.522 225.015C210.042 244.453 187.799 252.797 187.799 252.797C187.799 252.797 182.548 229.626 193.028 210.188C203.509 190.75 225.751 182.406 225.751 182.406C225.751 182.406 231.002 205.577 220.522 225.015Z" fill="#009C78"/>
<path d="M213.319 218.617C194.397 230.002 187.11 252.615 187.11 252.615C187.11 252.615 210.5 256.77 229.421 245.385C248.343 234 255.63 211.387 255.63 211.387C255.63 211.387 232.24 207.233 213.319 218.617Z" fill="#04BF94"/>
<path d="M282.843 159.322C300.973 186.468 296.473 221.298 296.473 221.298C296.473 221.298 262.578 212.117 244.448 184.972C226.317 157.826 230.817 122.996 230.817 122.996C230.817 122.996 264.713 132.177 282.843 159.322Z" fill="#009C78"/>
<path d="M269.504 164.304C271.274 196.9 295.762 222.072 295.762 222.072C295.762 222.072 317.38 194.396 315.61 161.8C313.84 129.204 289.352 104.031 289.352 104.031C289.352 104.031 267.735 131.708 269.504 164.304Z" fill="#0CA481"/>
<path d="M24.7396 201.29C24.0572 238.256 45.7924 251.567 72.8956 252.067C73.5251 252.079 74.1518 252.083 74.7755 252.081C76.0321 252.077 77.2762 252.042 78.5077 251.978C103.001 250.697 122.258 237.48 122.893 203.103C123.55 167.526 78.9134 121.79 75.5649 118.407C75.562 118.407 75.562 118.407 75.559 118.404C75.4318 118.275 75.3667 118.21 75.3667 118.21C75.3667 118.21 25.4219 164.328 24.7396 201.29Z" fill="#04BF94"/>
<path d="M74.7859 246.445L57.2997 221.033L74.7803 249.2L74.7753 252.08C76.0319 252.077 77.276 252.042 78.5075 251.978L77.2564 214.961L77.2767 214.676L77.2446 214.621L77.1254 211.123L95.6802 183.552L77.1195 208.504L77.0607 209.244L76.1156 181.277L92.0911 152.728L76.0165 176.364L75.5647 118.407L75.5623 118.214L75.5588 118.404L74.9684 164.092L59.9319 145.697L74.9621 168.027L74.9069 193.053L60.9913 168.779L74.8962 196.732L74.8653 210.647L54.6443 176.843L74.857 215.502L74.7859 246.445Z" fill="#009C78"/>
<path d="M100.921 201.29C100.238 238.256 121.974 251.567 149.077 252.067C149.706 252.079 150.333 252.083 150.957 252.081C152.213 252.077 153.457 252.042 154.689 251.978C179.182 250.697 198.439 237.48 199.074 203.103C199.731 167.526 155.094 121.79 151.746 118.407C151.743 118.407 151.743 118.407 151.74 118.404C151.613 118.275 151.548 118.21 151.548 118.21C151.548 118.21 101.603 164.328 100.921 201.29Z" fill="#04BF94"/>
<path d="M150.967 246.445L133.481 221.033L150.961 249.2L150.956 252.08C152.213 252.077 153.457 252.042 154.689 251.978L153.438 214.961L153.458 214.676L153.426 214.621L153.307 211.123L171.861 183.552L153.301 208.504L153.242 209.244L152.297 181.277L168.272 152.728L152.198 176.364L151.746 118.407L151.743 118.214L151.74 118.404L151.15 164.092L136.113 145.697L151.143 168.027L151.088 193.053L137.172 168.779L151.077 196.732L151.046 210.647L130.825 176.843L151.038 215.502L150.967 246.445Z" fill="#009C78"/>
<path d="M9.82567 201.939C9.14326 238.905 30.8785 252.215 57.9817 252.716C58.6112 252.728 59.2379 252.732 59.8616 252.73C61.1182 252.726 62.3623 252.691 63.5939 252.627C88.0873 251.346 107.344 238.129 107.979 203.752C108.636 168.175 63.9995 122.439 60.651 119.056C60.6481 119.056 60.6481 119.056 60.6451 119.053C60.5179 118.924 60.4528 118.859 60.4528 118.859C60.4528 118.859 10.508 164.977 9.82567 201.939Z" fill="#00AE86"/>
<path d="M59.8738 247.095L42.3875 221.682L59.8681 249.849L59.8631 252.73C61.1197 252.726 62.3638 252.692 63.5954 252.627L62.3442 215.611L62.3646 215.325L62.3325 215.27L62.2132 211.772L80.768 184.201L62.2073 209.154L62.1485 209.894L61.2034 181.927L77.1789 153.377L61.1043 177.013L60.6525 119.056L60.6501 118.863L60.6466 119.053L60.0562 164.741L45.0197 146.347L60.0499 168.676L59.9947 193.702L46.0791 169.428L59.984 197.381L59.9531 211.297L39.7321 177.492L59.9448 216.151L59.8738 247.095Z" fill="#009C78"/>
<path d="M280.839 201.29C280.157 238.256 301.892 251.567 328.995 252.067C329.625 252.079 330.252 252.083 330.875 252.081C332.132 252.077 333.376 252.042 334.608 251.978C359.101 250.697 378.358 237.48 378.993 203.103C379.65 167.526 335.013 121.79 331.665 118.407C331.662 118.407 331.662 118.407 331.659 118.404C331.532 118.275 331.467 118.21 331.467 118.21C331.467 118.21 281.522 164.328 280.839 201.29Z" fill="#04BF94"/>
<path d="M330.886 246.445L313.4 221.033L330.88 249.2L330.875 252.08C332.132 252.077 333.376 252.042 334.607 251.978L333.356 214.961L333.377 214.676L333.345 214.621L333.225 211.123L351.78 183.552L333.219 208.504L333.161 209.244L332.216 181.277L348.191 152.728L332.116 176.364L331.665 118.407L331.662 118.214L331.659 118.404L331.068 164.092L316.032 145.697L331.062 168.027L331.007 193.053L317.091 168.779L330.996 196.732L330.965 210.647L310.744 176.843L330.957 215.502L330.886 246.445Z" fill="#009C78"/>
<path d="M81.3698 257.705C93.0347 255.728 104.253 254.031 115.024 252.613L110.766 244.356C112.202 243.857 118.511 248.585 118.511 248.585L112.922 224.618C120.144 225.489 123.816 249.961 123.816 249.961L131.884 241.687L127.978 250.989C160.945 247.107 189.416 245.667 213.364 245.615L209.72 238.548C211.156 238.049 217.464 242.778 217.464 242.778L211.876 218.81C219.097 219.681 222.769 244.154 222.769 244.154L230.838 235.88L226.7 245.732C246.777 246.134 263.149 247.504 275.785 249.067C272.099 238.057 259.576 227.587 259.576 227.587C269.14 230.431 274.156 235.198 276.778 239.642C277.012 216.927 273.235 194.348 265.621 172.945C265.621 172.945 285.389 215.965 282.867 244.842L282.565 249.97C299.323 252.37 307.749 254.867 307.749 254.867L81.3698 257.705Z" fill="#009C78"/>
<path d="M43.4407 255.759C55.1056 253.782 66.3238 252.085 77.0953 250.667L72.8371 242.41C74.273 241.911 80.5814 246.639 80.5814 246.639L74.9932 222.672C82.2148 223.543 85.8865 248.015 85.8865 248.015L93.9549 239.741L90.0487 249.043C123.016 245.161 151.487 243.721 175.435 243.669L171.791 236.602C173.227 236.103 179.535 240.832 179.535 240.832L173.947 216.864C181.168 217.735 184.84 242.207 184.84 242.207L192.908 233.933L188.771 243.786C208.848 244.188 225.22 245.558 237.856 247.12C234.17 236.111 221.647 225.641 221.647 225.641C231.211 228.485 236.227 233.252 238.849 237.696C239.083 214.981 235.306 192.402 227.692 170.999C227.692 170.999 247.46 214.019 244.938 242.896L244.636 248.024C261.394 250.424 269.82 252.921 269.82 252.921L43.4407 255.759Z" fill="#009C78"/>
<path d="M0.000610352 259.001C11.6655 257.024 22.8837 255.327 33.6552 253.909L29.397 245.652C30.8329 245.153 37.1414 249.881 37.1414 249.881L31.5532 225.914C38.7747 226.785 42.4464 251.257 42.4464 251.257L50.5148 242.983L46.6086 252.285C79.5758 248.403 108.047 246.963 131.995 246.911L128.351 239.844C129.786 239.345 136.095 244.074 136.095 244.074L130.507 220.106C137.728 220.977 141.4 245.449 141.4 245.449L149.468 237.175L145.331 247.028C165.408 247.43 181.779 248.8 194.416 250.362C190.73 239.353 178.207 228.883 178.207 228.883C187.771 231.727 192.787 236.494 195.409 240.938C195.643 218.222 191.866 195.644 184.252 174.241C184.252 174.241 204.02 217.261 201.497 246.138L201.196 251.266C217.954 253.666 226.38 256.163 226.38 256.163L0.000610352 259.001Z" fill="#009C78"/>
<path d="M143.612 255.759C155.277 253.782 166.495 252.085 177.267 250.667L173.008 242.41C174.444 241.911 180.753 246.639 180.753 246.639L175.165 222.672C182.386 223.543 186.058 248.015 186.058 248.015L194.126 239.741L190.22 249.043C223.187 245.161 251.659 243.721 275.607 243.669L271.962 236.602C273.398 236.103 279.706 240.832 279.706 240.832L274.118 216.864C281.34 217.735 285.011 242.207 285.011 242.207L293.08 233.933L288.943 243.786C309.019 244.188 325.391 245.558 338.028 247.12C334.341 236.111 321.818 225.641 321.818 225.641C331.382 228.485 336.399 233.252 339.02 237.696C339.254 214.981 335.478 192.402 327.864 170.999C327.864 170.999 347.631 214.019 345.109 242.896L344.807 248.024C361.566 250.424 369.991 252.921 369.991 252.921L143.612 255.759Z" fill="#009C78"/>
</g>
<defs>
<clipPath id="clip0">
<rect width="379" height="259" fill="white" transform="matrix(-1 0 0 1 379 0)"/>
</clipPath>
</defs>
</svg>
